<svg width="38" height="38" viewBox="0 0 38 38" fill="none" xmlns="http://www.w3.org/2000/svg">
<path d="M34.7862 29.0218C34.7862 29.5918 34.6595 30.1777 34.3903 30.7477C34.1212 31.3177 33.7728 31.856 33.3137 32.3627C32.5378 33.2177 31.6828 33.8352 30.717 34.231C29.767 34.6268 28.7378 34.8327 27.6295 34.8327C26.0145 34.8327 24.2887 34.4527 22.4678 33.6768C20.647 32.901 18.8262 31.856 17.0212 30.5418C15.2003 29.2118 13.4745 27.7393 11.8278 26.1085C10.197 24.4618 8.72449 22.736 7.41033 20.931C6.11199 19.126 5.06699 17.321 4.30699 15.5318C3.54699 13.7268 3.16699 12.001 3.16699 10.3543C3.16699 9.27768 3.35699 8.24852 3.73699 7.29852C4.11699 6.33268 4.71866 5.44602 5.55783 4.65435C6.57116 3.65685 7.67949 3.16602 8.85116 3.16602C9.29449 3.16602 9.73783 3.26102 10.1337 3.45102C10.5453 3.64102 10.9095 3.92602 11.1945 4.33768L14.8678 9.51518C15.1528 9.91102 15.3587 10.2752 15.5012 10.6235C15.6437 10.956 15.7228 11.2885 15.7228 11.5893C15.7228 11.9693 15.612 12.3493 15.3903 12.7135C15.1845 13.0777 14.8837 13.4577 14.5037 13.8377L13.3003 15.0885C13.1262 15.2627 13.047 15.4685 13.047 15.7218C13.047 15.8485 13.0628 15.9593 13.0945 16.086C13.142 16.2127 13.1895 16.3077 13.2212 16.4027C13.5062 16.9252 13.997 17.606 14.6937 18.4293C15.4062 19.2527 16.1662 20.0918 16.9895 20.931C17.8445 21.7702 18.6678 22.546 19.507 23.2585C20.3303 23.9552 21.0112 24.4302 21.5495 24.7152C21.6287 24.7468 21.7237 24.7943 21.8345 24.8418C21.9612 24.8893 22.0878 24.9052 22.2303 24.9052C22.4995 24.9052 22.7053 24.8102 22.8795 24.636L24.0828 23.4485C24.4787 23.0527 24.8587 22.7518 25.2228 22.5618C25.587 22.3402 25.9512 22.2293 26.347 22.2293C26.6478 22.2293 26.9645 22.2927 27.3128 22.4352C27.6612 22.5777 28.0253 22.7835 28.4212 23.0527L33.662 26.7735C34.0737 27.0585 34.3587 27.391 34.5328 27.7868C34.6912 28.1827 34.7862 28.5785 34.7862 29.0218Z" stroke="#292D32" stroke-width="1.5" stroke-miterlimit="10"/>
<path d="M29.2917 14.2487C29.2917 13.2987 28.5475 11.842 27.4392 10.6545C26.4258 9.56203 25.08 8.70703 23.75 8.70703" stroke="#292D32" stroke-width="1.5" stroke-linecap="round" stroke-linejoin="round"/>
<path d="M34.8333 14.2493C34.8333 8.12185 29.8775 3.16602 23.75 3.16602" stroke="#292D32" stroke-width="1.5" stroke-linecap="round" stroke-linejoin="round"/>
</svg>
