<svg width="39" height="39" viewBox="0 0 39 39" fill="none" xmlns="http://www.w3.org/2000/svg">
<path d="M19.494 0.492188C14.3338 0.492188 13.6862 0.514751 11.6596 0.606984C9.63683 0.699613 8.25614 1.01985 7.04805 1.48973C5.79839 1.97504 4.73834 2.62423 3.68224 3.68075C2.62536 4.73688 1.97618 5.79697 1.4893 7.04627C1.01826 8.25479 0.697627 9.63591 0.606584 11.6579C0.515938 13.6847 0.492188 14.3327 0.492188 19.493C0.492188 24.6533 0.515146 25.2989 0.606981 27.3256C0.700003 29.3484 1.02023 30.7291 1.4897 31.9373C1.97539 33.187 2.62456 34.2471 3.68105 35.3032C4.73675 36.3601 5.79681 37.0109 7.04567 37.4962C8.25456 37.9661 9.63564 38.2863 11.658 38.3789C13.6847 38.4712 14.3319 38.4937 19.4916 38.4937C24.6521 38.4937 25.2977 38.4712 27.3244 38.3789C29.3472 38.2863 30.7294 37.9661 31.9383 37.4962C33.1876 37.0109 34.246 36.3601 35.3017 35.3032C36.3586 34.2471 37.0078 33.187 37.4947 31.9377C37.9618 30.7291 38.2824 29.348 38.3774 27.326C38.4684 25.2993 38.4922 24.6533 38.4922 19.493C38.4922 14.3327 38.4684 13.6851 38.3774 11.6583C38.2824 9.63552 37.9618 8.25479 37.4947 7.04666C37.0078 5.79697 36.3586 4.73688 35.3017 3.68075C34.2449 2.62384 33.188 1.97464 31.9371 1.48973C30.7259 1.01985 29.3444 0.699613 27.3217 0.606984C25.295 0.514751 24.6498 0.492188 19.488 0.492188H19.494ZM17.7895 3.91628C18.2954 3.91549 18.8598 3.91628 19.494 3.91628C24.567 3.91628 25.1683 3.93449 27.1716 4.02554C29.0242 4.11025 30.0296 4.41981 30.6993 4.67988C31.586 5.02427 32.2182 5.43595 32.8828 6.10098C33.5478 6.766 33.9595 7.39936 34.3046 8.28607C34.5647 8.95505 34.8746 9.96051 34.9589 11.8131C35.05 13.8161 35.0698 14.4178 35.0698 19.4886C35.0698 24.5594 35.05 25.1611 34.9589 27.1641C34.8742 29.0167 34.5647 30.0222 34.3046 30.6911C33.9602 31.5778 33.5478 32.2092 32.8828 32.8739C32.2178 33.5389 31.5864 33.9506 30.6993 34.295C30.0304 34.5562 29.0242 34.865 27.1716 34.9497C25.1687 35.0407 24.567 35.0605 19.494 35.0605C14.4205 35.0605 13.8192 35.0407 11.8163 34.9497C9.96379 34.8642 8.95836 34.5546 8.28821 34.2946C7.40153 33.9502 6.76819 33.5385 6.10318 32.8735C5.43818 32.2084 5.02651 31.5767 4.68134 30.6896C4.42127 30.0206 4.11133 29.0151 4.02702 27.1625C3.93597 25.1595 3.91776 24.5579 3.91776 19.4839C3.91776 14.4099 3.93597 13.8113 4.02702 11.8083C4.11173 9.95576 4.42127 8.9503 4.68134 8.28052C5.02571 7.39382 5.43818 6.76046 6.10318 6.09544C6.76819 5.43041 7.40153 5.01873 8.28821 4.67354C8.95796 4.41228 9.96379 4.10352 11.8163 4.01841C13.5691 3.93924 14.2483 3.91549 17.7895 3.91154V3.91628ZM29.6361 7.0712C28.3774 7.0712 27.3561 8.09131 27.3561 9.35051C27.3561 10.6093 28.3774 11.6306 29.6361 11.6306C30.8949 11.6306 31.9161 10.6093 31.9161 9.35051C31.9161 8.0917 30.8949 7.07041 29.6361 7.07041V7.0712ZM19.494 9.73527C14.1054 9.73527 9.73658 14.1043 9.73658 19.493C9.73658 24.8817 14.1054 29.2487 19.494 29.2487C24.8825 29.2487 29.2498 24.8817 29.2498 19.493C29.2498 14.1043 24.8821 9.73527 19.4936 9.73527H19.494ZM19.494 13.1594C22.9916 13.1594 25.8274 15.9948 25.8274 19.493C25.8274 22.9907 22.9916 25.8266 19.494 25.8266C15.996 25.8266 13.1606 22.9907 13.1606 19.493C13.1606 15.9948 15.996 13.1594 19.494 13.1594V13.1594Z" fill="url(#paint0_radial_226_15178)"/>
<path d="M19.494 0.492188C14.3338 0.492188 13.6862 0.514751 11.6596 0.606984C9.63683 0.699613 8.25614 1.01985 7.04805 1.48973C5.79839 1.97504 4.73834 2.62423 3.68224 3.68075C2.62536 4.73688 1.97618 5.79697 1.4893 7.04627C1.01826 8.25479 0.697627 9.63591 0.606584 11.6579C0.515938 13.6847 0.492188 14.3327 0.492188 19.493C0.492188 24.6533 0.515146 25.2989 0.606981 27.3256C0.700003 29.3484 1.02023 30.7291 1.4897 31.9373C1.97539 33.187 2.62456 34.2471 3.68105 35.3032C4.73675 36.3601 5.79681 37.0109 7.04567 37.4962C8.25456 37.9661 9.63564 38.2863 11.658 38.3789C13.6847 38.4712 14.3319 38.4937 19.4916 38.4937C24.6521 38.4937 25.2977 38.4712 27.3244 38.3789C29.3472 38.2863 30.7294 37.9661 31.9383 37.4962C33.1876 37.0109 34.246 36.3601 35.3017 35.3032C36.3586 34.2471 37.0078 33.187 37.4947 31.9377C37.9618 30.7291 38.2824 29.348 38.3774 27.326C38.4684 25.2993 38.4922 24.6533 38.4922 19.493C38.4922 14.3327 38.4684 13.6851 38.3774 11.6583C38.2824 9.63552 37.9618 8.25479 37.4947 7.04666C37.0078 5.79697 36.3586 4.73688 35.3017 3.68075C34.2449 2.62384 33.188 1.97464 31.9371 1.48973C30.7259 1.01985 29.3444 0.699613 27.3217 0.606984C25.295 0.514751 24.6498 0.492188 19.488 0.492188H19.494ZM17.7895 3.91628C18.2954 3.91549 18.8598 3.91628 19.494 3.91628C24.567 3.91628 25.1683 3.93449 27.1716 4.02554C29.0242 4.11025 30.0296 4.41981 30.6993 4.67988C31.586 5.02427 32.2182 5.43595 32.8828 6.10098C33.5478 6.766 33.9595 7.39936 34.3046 8.28607C34.5647 8.95505 34.8746 9.96051 34.9589 11.8131C35.05 13.8161 35.0698 14.4178 35.0698 19.4886C35.0698 24.5594 35.05 25.1611 34.9589 27.1641C34.8742 29.0167 34.5647 30.0222 34.3046 30.6911C33.9602 31.5778 33.5478 32.2092 32.8828 32.8739C32.2178 33.5389 31.5864 33.9506 30.6993 34.295C30.0304 34.5562 29.0242 34.865 27.1716 34.9497C25.1687 35.0407 24.567 35.0605 19.494 35.0605C14.4205 35.0605 13.8192 35.0407 11.8163 34.9497C9.96379 34.8642 8.95836 34.5546 8.28821 34.2946C7.40153 33.9502 6.76819 33.5385 6.10318 32.8735C5.43818 32.2084 5.02651 31.5767 4.68134 30.6896C4.42127 30.0206 4.11133 29.0151 4.02702 27.1625C3.93597 25.1595 3.91776 24.5579 3.91776 19.4839C3.91776 14.4099 3.93597 13.8113 4.02702 11.8083C4.11173 9.95576 4.42127 8.9503 4.68134 8.28052C5.02571 7.39382 5.43818 6.76046 6.10318 6.09544C6.76819 5.43041 7.40153 5.01873 8.28821 4.67354C8.95796 4.41228 9.96379 4.10352 11.8163 4.01841C13.5691 3.93924 14.2483 3.91549 17.7895 3.91154V3.91628ZM29.6361 7.0712C28.3774 7.0712 27.3561 8.09131 27.3561 9.35051C27.3561 10.6093 28.3774 11.6306 29.6361 11.6306C30.8949 11.6306 31.9161 10.6093 31.9161 9.35051C31.9161 8.0917 30.8949 7.07041 29.6361 7.07041V7.0712ZM19.494 9.73527C14.1054 9.73527 9.73658 14.1043 9.73658 19.493C9.73658 24.8817 14.1054 29.2487 19.494 29.2487C24.8825 29.2487 29.2498 24.8817 29.2498 19.493C29.2498 14.1043 24.8821 9.73527 19.4936 9.73527H19.494ZM19.494 13.1594C22.9916 13.1594 25.8274 15.9948 25.8274 19.493C25.8274 22.9907 22.9916 25.8266 19.494 25.8266C15.996 25.8266 13.1606 22.9907 13.1606 19.493C13.1606 15.9948 15.996 13.1594 19.494 13.1594V13.1594Z" fill="url(#paint1_radial_226_15178)"/>
<defs>
<radialGradient id="paint0_radial_226_15178" cx="0" cy="0" r="1" gradientUnits="userSpaceOnUse" gradientTransform="translate(10.586 41.4206) rotate(-90) scale(37.6623 35.0275)">
<stop stop-color="#FFDD55"/>
<stop offset="0.1" stop-color="#FFDD55"/>
<stop offset="0.5" stop-color="#FF543E"/>
<stop offset="1" stop-color="#C837AB"/>
</radialGradient>
<radialGradient id="paint1_radial_226_15178" cx="0" cy="0" r="1" gradientUnits="userSpaceOnUse" gradientTransform="translate(-5.87301 3.22975) rotate(78.6811) scale(16.8352 69.3928)">
<stop stop-color="#3771C8"/>
<stop offset="0.128" stop-color="#3771C8"/>
<stop offset="1" stop-color="#6600FF" stop-opacity="0"/>
</radialGradient>
</defs>
</svg>
