<svg width="38" height="38" viewBox="0 0 38 38" fill="none" xmlns="http://www.w3.org/2000/svg">
<path d="M14.5031 17.2102C14.3447 17.1943 14.1547 17.1943 13.9806 17.2102C10.2122 17.0835 7.21973 13.996 7.21973 10.196C7.21973 6.31685 10.3547 3.16602 14.2497 3.16602C18.1289 3.16602 21.2797 6.31685 21.2797 10.196C21.2639 13.996 18.2714 17.0835 14.5031 17.2102Z" stroke="#292D32" stroke-width="1.5" stroke-linecap="round" stroke-linejoin="round"/>
<path d="M25.9822 6.33398C29.0539 6.33398 31.5239 8.81982 31.5239 11.8757C31.5239 14.8681 29.1489 17.3065 26.188 17.4173C26.0614 17.4015 25.9189 17.4015 25.7764 17.4173" stroke="#292D32" stroke-width="1.5" stroke-linecap="round" stroke-linejoin="round"/>
<path d="M6.58664 23.054C2.75497 25.619 2.75497 29.799 6.58664 32.3481C10.9408 35.2615 18.0816 35.2615 22.4358 32.3481C26.2675 29.7831 26.2675 25.6032 22.4358 23.054C18.0975 20.1565 10.9566 20.1565 6.58664 23.054Z" stroke="#292D32" stroke-width="1.5" stroke-linecap="round" stroke-linejoin="round"/>
<path d="M29.0381 31.666C30.1781 31.4285 31.2548 30.9693 32.1414 30.2885C34.6114 28.436 34.6114 25.3802 32.1414 23.5277C31.2706 22.8627 30.2098 22.4193 29.0856 22.166" stroke="#292D32" stroke-width="1.5" stroke-linecap="round" stroke-linejoin="round"/>
</svg>
