<svg width="38" height="38" viewBox="0 0 38 38" fill="none" xmlns="http://www.w3.org/2000/svg">
<path d="M19 38C29.4934 38 38 29.4934 38 19C38 8.50659 29.4934 0 19 0C8.50659 0 0 8.50659 0 19C0 29.4934 8.50659 38 19 38Z" fill="url(#paint0_linear_226_15172)"/>
<path d="M15.5167 27.7057C14.9012 27.7057 15.0058 27.4733 14.7935 26.8872L12.9834 20.93L26.9167 12.6641" fill="#C8DAEA"/>
<path d="M15.5166 27.7091C15.9916 27.7091 16.2015 27.4919 16.4666 27.2341L18.9999 24.7708L15.8399 22.8652" fill="#A9C9DD"/>
<path d="M15.8393 22.8641L23.4963 28.5212C24.3701 29.0033 25.0007 28.7537 25.2183 27.71L28.3351 13.0225C28.6542 11.7431 27.8475 11.1629 27.0116 11.5424L8.70982 18.5995C7.46055 19.1005 7.46783 19.7975 8.4821 20.1081L13.1787 21.5739L24.052 14.7142C24.5653 14.4029 25.0364 14.5702 24.6497 14.9134" fill="url(#paint1_linear_226_15172)"/>
<defs>
<linearGradient id="paint0_linear_226_15172" x1="25.3346" y1="6.3346" x2="15.8346" y2="28.5" gradientUnits="userSpaceOnUse">
<stop stop-color="#37AEE2"/>
<stop offset="1" stop-color="#1E96C8"/>
</linearGradient>
<linearGradient id="paint1_linear_226_15172" x1="21.3754" y1="18.999" x2="24.3488" y2="25.7651" gradientUnits="userSpaceOnUse">
<stop stop-color="#EFF7FC"/>
<stop offset="1" stop-color="white"/>
</linearGradient>
</defs>
</svg>
