<svg width="51" height="30" viewBox="0 0 51 30" fill="none" xmlns="http://www.w3.org/2000/svg">
<path fill-rule="evenodd" clip-rule="evenodd" d="M49.3613 2.08185C49.736 0.90747 49.3613 0.05338 47.7016 0.05338H42.1873C40.7953 0.05338 40.1529 0.800712 39.7781 1.60142C39.7781 1.60142 36.9406 8.43416 32.9789 12.8648C31.694 14.1459 31.1051 14.573 30.4091 14.573C30.0344 14.573 29.5525 14.1459 29.5525 12.9715V2.02847C29.5525 0.640567 29.1242 0 27.9464 0H19.2734C18.4168 0 17.8814 0.640566 17.8814 1.28114C17.8814 2.61566 19.8623 2.93594 20.0764 6.6726V14.7865C20.0764 16.548 19.7552 16.8683 19.0592 16.8683C17.1854 16.8683 12.6348 9.98221 9.90438 2.13523C9.369 0.587189 8.83363 0 7.44167 0H1.8738C0.267686 0 0 0.747328 0 1.54804C0 2.98932 1.8738 10.2491 8.72656 19.8577C13.2772 26.4235 19.7552 29.9466 25.5908 29.9466C29.1242 29.9466 29.5525 29.1459 29.5525 27.8114V22.847C29.5525 21.2456 29.8737 20.9787 30.998 20.9787C31.8011 20.9787 33.2466 21.4057 36.5123 24.5552C40.2599 28.2918 40.9024 30 42.9903 30H48.5047C50.1108 30 50.8603 29.1993 50.432 27.6512C49.9502 26.1032 48.1299 23.8612 45.7743 21.1922C44.4894 19.6975 42.5621 18.0427 41.9731 17.242C41.1701 16.1744 41.3842 15.7473 41.9731 14.7865C41.9196 14.7865 48.6653 5.28469 49.3613 2.08185Z" fill="#4680C2"/>
</svg>
