<svg width="38" height="38" viewBox="0 0 38 38" fill="none" xmlns="http://www.w3.org/2000/svg">
<path fill-rule="evenodd" clip-rule="evenodd" d="M20.6425 0.916682C25.1001 1.13576 29.2538 2.97395 32.4263 6.14858C35.8103 9.53471 37.6729 14.0358 37.6711 18.8225C37.667 28.7002 29.6257 36.7372 19.7474 36.7372C16.0326 36.7372 13.0807 35.5959 11.1746 34.5567L1.67285 37.0479L4.21573 27.7644C2.6472 25.0476 1.82185 21.9658 1.82314 18.8082C1.82711 8.93074 9.86774 0.894531 19.7471 0.894531L20.6425 0.916682ZM11.6148 31.3135L12.1588 31.6361C14.4461 32.9928 17.068 33.7106 19.7413 33.7117H19.7473C27.9585 33.7117 34.6415 27.0318 34.6448 18.8214C34.6463 14.8428 33.0982 11.1017 30.2855 8.28721C27.4728 5.47257 23.7324 3.92162 19.7532 3.92033C11.5358 3.92033 4.85268 10.5995 4.8494 18.8093C4.84828 21.6229 5.63587 24.363 7.12714 26.7336L7.48135 27.2971L5.97637 32.7918L11.6148 31.3135ZM28.7772 23.0826C28.6653 22.8957 28.3668 22.7838 27.9189 22.5597C27.471 22.3356 25.2692 21.2527 24.8587 21.1032C24.4481 20.954 24.1495 20.8794 23.851 21.3274C23.5525 21.7754 22.6942 22.7838 22.4329 23.0826C22.1717 23.3813 21.9104 23.4187 21.4627 23.1946C21.0148 22.9706 19.5717 22.4978 17.8611 20.9728C16.5297 19.7858 15.6309 18.32 15.3696 17.8719C15.1084 17.4238 15.3418 17.1815 15.566 16.9583C15.7675 16.7577 16.0139 16.4355 16.2378 16.1741C16.4618 15.9128 16.5363 15.7259 16.6857 15.4273C16.8349 15.1285 16.7603 14.8672 16.6483 14.6431C16.5363 14.4189 15.6407 12.2156 15.2675 11.3193C14.9039 10.4465 14.5347 10.5647 14.2598 10.5509C13.9989 10.538 13.7 10.5351 13.4015 10.5351C13.1029 10.5351 12.6177 10.6471 12.2072 11.0953C11.7967 11.5434 10.6397 12.6264 10.6397 14.8296C10.6397 17.033 12.2445 19.1614 12.4685 19.4602C12.6924 19.7591 15.6265 24.2802 20.1191 26.2194C21.1876 26.6806 22.0218 26.956 22.6722 27.1623C23.7451 27.503 24.7214 27.455 25.4931 27.3397C26.3536 27.2112 28.1428 26.2568 28.516 25.2113C28.8892 24.1655 28.8892 23.2692 28.7772 23.0826Z" fill="white"/>
<mask id="mask0_228_15193" style="mask-type:alpha" maskUnits="userSpaceOnUse" x="4" y="3" width="31" height="31">
<path fill-rule="evenodd" clip-rule="evenodd" d="M11.615 31.3131L12.159 31.6357C14.4464 32.9924 17.0682 33.7102 19.7415 33.7113H19.7475C27.9587 33.7113 34.6417 27.0314 34.645 18.821C34.6465 14.8424 33.0984 11.1013 30.2857 8.28681C27.473 5.47216 23.7326 3.92121 19.7535 3.91992C11.536 3.91992 4.85289 10.5991 4.84961 18.8089C4.84849 21.6225 5.63607 24.3626 7.12735 26.7332L7.48156 27.2967L5.97658 32.7913L11.615 31.3131ZM28.7774 23.0822C28.6655 22.8953 28.367 22.7834 27.9191 22.5593C27.4712 22.3352 25.2694 21.2523 24.8589 21.1028C24.4484 20.9536 24.1498 20.879 23.8512 21.327C23.5527 21.775 22.6944 22.7834 22.4331 23.0822C22.1719 23.3809 21.9106 23.4183 21.4629 23.1942C21.015 22.9702 19.5719 22.4974 17.8613 20.9724C16.5299 19.7854 15.6311 18.3196 15.3698 17.8715C15.1086 17.4234 15.342 17.181 15.5662 16.9579C15.7677 16.7573 16.0141 16.4351 16.238 16.1737C16.462 15.9124 16.5365 15.7255 16.6859 15.4269C16.8351 15.1281 16.7605 14.8668 16.6486 14.6427C16.5365 14.4185 15.6409 12.2152 15.2677 11.3189C14.9041 10.4461 14.5349 10.5643 14.26 10.5505C13.9991 10.5376 13.7002 10.5347 13.4017 10.5347C13.1031 10.5347 12.6179 10.6467 12.2074 11.0949C11.7969 11.543 10.6399 12.626 10.6399 14.8292C10.6399 17.0326 12.2448 19.161 12.4687 19.4598C12.6926 19.7587 15.6267 24.2798 20.1193 26.219C21.1878 26.6802 22.022 26.9556 22.6724 27.1619C23.7454 27.5026 24.7216 27.4546 25.4933 27.3392C26.3538 27.2108 28.143 26.2564 28.5162 25.2109C28.8894 24.165 28.8894 23.2688 28.7774 23.0822Z" fill="black"/>
</mask>
<g mask="url(#mask0_228_15193)">
<path d="M44.3599 -6H-6V44.36H44.3599V-6Z" fill="url(#paint0_linear_228_15193)"/>
</g>
<defs>
<linearGradient id="paint0_linear_228_15193" x1="19.18" y1="44.36" x2="19.18" y2="-6" gradientUnits="userSpaceOnUse">
<stop stop-color="#25CF43"/>
<stop offset="1" stop-color="#61FD7D"/>
</linearGradient>
</defs>
</svg>
