<?xml version="1.0" encoding="iso-8859-1"?>
<!-- Generator: Adobe Illustrator 19.0.0, SVG Export Plug-In . SVG Version: 6.00 Build 0)  -->
<svg xmlns="http://www.w3.org/2000/svg" xmlns:xlink="http://www.w3.org/1999/xlink" version="1.1" id="Layer_1" x="0px" y="0px" viewBox="0 0 512 512" style="enable-background:new 0 0 512 512;" xml:space="preserve">
<g>
	<rect x="58.423" y="426.518" style="fill:#1F1A78;" width="69.915" height="77.312"/>
	<rect x="383.663" y="426.518" style="fill:#1F1A78;" width="69.915" height="77.312"/>
</g>
<rect x="85.657" y="8.17" style="fill:#DB412C;" width="340.687" height="315.414"/>
<g>
	<path style="fill:#C92810;" d="M150.125,323.584v102.934L47.529,404.731v-43.019c0-20.97,17.157-38.128,38.128-38.128H150.125z"/>
	<path style="fill:#C92810;" d="M464.472,361.712v43.019l-102.596,21.787V323.584h64.468   C447.314,323.584,464.472,340.741,464.472,361.712z"/>
</g>
<g>
	<rect x="427.03" y="123.098" style="fill:#5D8AE1;" width="29.413" height="55.013"/>
	<rect x="52.835" y="125.277" style="fill:#5D8AE1;" width="31.591" height="53.923"/>
</g>
<rect x="128.338" y="91.92" style="fill:#6DB4F5;" width="255.325" height="334.597"/>
<polygon style="fill:#495DD9;" points="464.472,404.731 464.472,448.305 453.578,448.305 383.663,448.305 128.338,448.305   58.423,448.305 47.529,448.305 47.529,404.731 128.338,404.731 383.663,404.731 "/>
<rect x="128.338" y="89.872" style="fill:#FFFFFF;" width="127.662" height="89.197"/>
<rect x="256.545" y="91.92" style="fill:#85C5FF;" width="127.118" height="87.149"/>
<path style="fill:#5D8AE1;" d="M312.849,235.883H199.151c-20.97,0-38.128,17.157-38.128,38.128h189.953  C350.977,253.04,333.819,235.883,312.849,235.883z"/>
<path d="M85.655,100.092c4.512,0,8.17-3.658,8.17-8.17V16.34h324.35v75.581c0,4.512,3.658,8.17,8.17,8.17  c4.512,0,8.17-3.658,8.17-8.17V8.17c0-4.512-3.658-8.17-8.17-8.17H85.655c-4.512,0-8.17,3.658-8.17,8.17v83.751  C77.485,96.434,81.143,100.092,85.655,100.092z"/>
<path d="M434.516,316.152V211.751c0-4.512-3.658-8.17-8.17-8.17c-4.512,0-8.17,3.658-8.17,8.17v103.665h-26.347V187.241h67.198  c4.512,0,8.17-3.658,8.17-8.17v-54.468c0-4.512-3.658-8.17-8.17-8.17h-67.198V91.921c0-4.512-3.658-8.17-8.17-8.17H128.344  c-4.512,0-8.17,3.658-8.17,8.17v24.511H52.974c-4.512,0-8.17,3.658-8.17,8.17v54.468c0,4.512,3.658,8.17,8.17,8.17h67.198v128.175  H93.825V211.751c0-4.512-3.658-8.17-8.17-8.17c-4.512,0-8.17,3.658-8.17,8.17v104.401c-21.643,3.872-38.128,22.821-38.128,45.561  v86.594c0,4.512,3.658,8.17,8.17,8.17h2.723v47.351c0,4.512,3.658,8.17,8.17,8.17h69.922c4.512,0,8.17-3.658,8.17-8.17v-22.841  c0-4.512-3.658-8.17-8.17-8.17c-4.512,0-8.17,3.658-8.17,8.17v14.67H66.591v-39.181h378.818v39.181h-53.581v-14.67  c0-4.512-3.658-8.17-8.17-8.17s-8.17,3.658-8.17,8.17v22.841c0,4.512,3.658,8.17,8.17,8.17h69.922c4.512,0,8.17-3.658,8.17-8.17  v-47.351h2.723c4.512,0,8.17-3.658,8.17-8.17v-86.594C472.644,338.973,456.16,320.024,434.516,316.152z M426.346,331.756  c16.519,0,29.957,13.438,29.957,29.957v34.85h-64.475v-64.807H426.346z M456.304,440.138H55.697v-27.234h400.605v27.234H456.304z   M136.514,187.241h238.974v209.322H136.514V187.241z M450.857,170.9h-16.34v-38.128h16.34V170.9z M418.176,132.772V170.9h-26.347  v-38.128H418.176z M375.487,170.9H264.171v-70.809h111.316V170.9z M136.514,100.092H247.83V170.9H136.514V100.092z M120.173,170.9  H93.825v-38.128h26.347V170.9H120.173z M61.144,132.772h16.34V170.9h-16.34V132.772z M85.655,331.756h34.518v64.807H55.697v-34.85  C55.697,345.195,69.137,331.756,85.655,331.756z"/>
<path d="M161.023,282.181h189.953c4.512,0,8.17-3.658,8.17-8.17c0-25.529-20.769-46.298-46.298-46.298H199.151  c-25.529,0-46.298,20.769-46.298,46.298C152.853,278.523,156.511,282.181,161.023,282.181z M199.151,244.053h113.698  c13.688,0,25.26,9.227,28.826,21.787H170.327C173.891,253.279,185.463,244.053,199.151,244.053z"/>
<path d="M350.977,298.521H161.023c-4.512,0-8.17,3.658-8.17,8.17c0,4.512,3.658,8.17,8.17,8.17h189.953  c4.512,0,8.17-3.658,8.17-8.17C359.147,302.179,355.49,298.521,350.977,298.521z"/>
<path d="M350.977,331.202H161.023c-4.512,0-8.17,3.658-8.17,8.17c0,4.512,3.658,8.17,8.17,8.17h189.953  c4.512,0,8.17-3.658,8.17-8.17C359.147,334.86,355.49,331.202,350.977,331.202z"/>
<path d="M350.977,363.883H161.023c-4.512,0-8.17,3.658-8.17,8.17s3.658,8.17,8.17,8.17h189.953c4.512,0,8.17-3.658,8.17-8.17  S355.49,363.883,350.977,363.883z"/>
<g>
</g>
<g>
</g>
<g>
</g>
<g>
</g>
<g>
</g>
<g>
</g>
<g>
</g>
<g>
</g>
<g>
</g>
<g>
</g>
<g>
</g>
<g>
</g>
<g>
</g>
<g>
</g>
<g>
</g>
</svg>
